<svg width="846" height="328" fill="none" xmlns="http://www.w3.org/2000/svg">
    <path
        d="M644.5 31.5S528.712-1.031 366 11.685M8.5 115C134.883 47.28 260.336 19.942 366 11.685m0 0S267.5 279 336.5 308.5c59.371-25.039 85.223-52.902 116-131 0 0-29.5 97 0 118 19.708-4.894 47.5-29.5 59.224-47.5m0 0c23.504-31.664 51.285-81.724 90.276-159l-69 219.5c-17.276-24.84-22.404-38.15-21.276-60.5zm0 0c63.316-44.321 100.516-58.243 168.776-70.5-4.361 51.547-15.889 80.039-52.423 118m0 0c-4.044 4.203-8.395 8.521-13.077 13-10.52-33.403 15.267-67.279 92-142.5.34 19.044 5.765 32.507 36 67.5 45.399-12.896 64.421-34.669 88.5-95.5-46.964 13.538-65.714 31.724-88.5 79 77.003 4.476 106.5 52.5 64 91.5-41 15-154.746 13.208-178.923-13z"
        stroke="#000" stroke-width="17" stroke-linecap="round" />
    <ellipse cx="463.5" cy="146.5" rx="14.5" ry="16.5" fill="#000" />
</svg>