<svg width="846" height="328" viewBox="0 0 846 328" fill="none" xmlns="http://www.w3.org/2000/svg">
<path d="M644.5 31.4998C644.5 31.4998 528.712 -1.031 366 11.6847M8.5 115C134.883 47.2806 260.336 19.9422 366 11.6847M366 11.6847C366 11.6847 267.5 279 336.5 308.5C395.871 283.461 421.723 255.598 452.5 177.5C452.5 177.5 423 274.5 452.5 295.5C472.208 290.606 500 266 511.724 248M511.724 248C535.228 216.336 563.009 166.276 602 89L533 308.5C515.724 283.66 510.596 270.35 511.724 248ZM511.724 248C575.04 203.679 612.24 189.757 680.5 177.5C676.139 229.047 664.611 257.539 628.077 295.5M628.077 295.5C624.033 299.703 619.682 304.021 615 308.5C604.48 275.097 630.267 241.221 707 166C707.34 185.044 712.765 198.507 743 233.5C788.399 220.604 807.421 198.831 831.5 138C784.536 151.538 765.786 169.724 743 217C820.003 221.476 849.5 269.5 807 308.5C766 323.5 652.254 321.708 628.077 295.5Z" stroke="black" stroke-width="17" stroke-linecap="round"/>
<ellipse cx="463.5" cy="146.5" rx="14.5" ry="16.5" fill="black"/>
</svg>
