<svg xmlns="http://www.w3.org/2000/svg" width="762" height="197"><path d="M436 53c4.357 2.22 7.397 4.855 10 9 1.376 6.247 1.376 6.247 0 9-3.767-.55-5.306-2.024-7.75-4.875l-1.86-2.117C435 62 435 62 435 59c-5-.606-8.755-.696-12.844 2.492a127.617 127.617 0 00-3.656 3.383l-1.957 1.796c-16.28 15.142-28.423 32.338-29.457 55.06L387 125l-.148 2.426c.037 3.192.78 5.179 2.941 7.504 8.32 6.901 16.703 8.582 27.207 10.07l.617-1.766c1.932-3.12 4.319-4.22 7.508-5.984l3.32-1.86L431 134l-2.078-1.223a250.187 250.187 0 01-9.672-6.214l-1.785-1.159c-4.217-2.855-4.217-2.855-5.438-5.56C412 118 412 118 413.313 115.938c9.344-6.737 22.221-6 33.25-6.063l2.094-.014c3.058.01 5.418.164 8.343 1.139.708 8.36-1.793 14.364-5 22a1215.5 1215.5 0 00-2.813 7.313L447 146l1.677-.184c2.566-.277 5.132-.547 7.698-.816.87-.095 1.74-.19 2.637-.29 6.018-.623 11.939-.827 17.988-.71l-.09-1.881c-.215-8.246 1.069-15.99 2.652-24.057l.402-2.09C489.946 64.043 489.946 64.043 498 53h3c3.636 12.727 3.636 12.727 1 18h-4c-1.472 5.6-2.608 11.157-3.508 16.875l-.395 2.454c-.41 2.557-.816 5.114-1.222 7.671l-.84 5.238c-.682 4.254-1.36 8.508-2.035 12.762l1.406-1.463 1.871-1.916 1.844-1.9c3.677-3.367 7.302-4.635 12.317-4.909L510 106c3.123 5.84 4.131 10.37 4.098 16.957l-.01 3.37-.025 3.485-.014 3.545c-.012 2.881-.028 5.762-.049 8.643h5c-.435 4.93-2.464 7.618-6 11-3.68.672-3.68.672-7 1-.099-9.805-.07-19.58.438-29.375l.118-2.392c.216-3.825.56-7.502 1.444-11.233-12.113 6.056-15.636 15.877-19.813 28.25L487 143h10c-2.23 2.23-3.392 2.505-6.375 3.312-3.47 1.073-4.417 1.426-6.75 4.375L482 153c-3.75.312-3.75.312-7 0v-5l-3.086.875C461.176 151.75 451.107 152.77 440 152l-1-1c.267-8.182 3.034-15.031 6.063-22.563L450 116h-27v2l2.625.187c4.381 1.055 6.132 2.72 9.375 5.813 1.738 3.476 1.456 7.2 1 11-3.239 6.478-7.921 10.518-14.688 12.812-10.368 2.713-21.232 1.626-30.894-3.066-6.313-3.842-10.287-8.571-12.23-15.746-1.32-21.097 7.741-39.035 20.812-55l1.55-2.012c7.71-9.664 22.2-22.07 35.45-18.988zM228 56l5 1a91.612 91.612 0 01-1.094 16.219l-.336 2.252c-.351 2.344-.71 4.687-1.07 7.029l-.723 4.805c-.586 3.9-1.18 7.797-1.777 11.695l3.118-.643c3.834-.788 7.67-1.57 11.506-2.348 1.657-.337 3.314-.677 4.97-1.018 2.387-.492 4.775-.977 7.164-1.46l2.226-.464c4.068-.814 7.868-1.227 12.016-1.067 1.072 7.526 2.024 15.032 2.704 22.603 1.034 13.585 1.034 13.585 5.296 26.397 3.338-.393 5.073-1.05 7.875-3 3.487-2.232 6.04-2.673 10.125-3-1.302 2.905-2.709 4.81-5 7 9.582-2.508 18.878-5.878 26-13 .944-2.165.944-2.165 1-4-5.818-3.982-10.282-4.611-17.25-4.687-1.776-.043-3.552-.088-5.328-.137l-2.357-.034C290 120 290 120 287 119c3.738-12.698 13.867-25.383 25.176-32.258C314 86 314 86 318 86c-.886 12.005-.886 12.005-3 15-2.245 1.155-4.526 2.098-6.871 3.031-2.611 1.189-3.816 2.425-5.129 4.969l-1 3 1.688.043c7.957.497 12.975 3.729 18.875 8.895C325 124 325 124 325.25 126.938c-4.466 10.941-16.588 17.261-27.03 21.675-16.665 6.661-16.665 6.661-25.22 6.387-.625-1.812-.625-1.812-1-4l2-3-2.375-2.187c-3.46-3.707-4.56-6.074-4.75-11.125L267 132h-2l-.625 2.25c-1.85 3.7-3.678 4.936-7.375 6.75-5.422 0-8.873-1.53-13-5-3.894-6.445-4.748-12.585-4-20 1.262-5.098 2.643-10.287 5-15l-1.941.438c-5.14 1.102-9.806 1.79-15.059 1.562l-.078 2c-.676 11.801-2.876 23.373-4.922 35-2.313.625-2.313.625-5 1-3.445-2.296-3.378-2.635-4.188-6.437-1.532-5.69-4.49-9.698-8.07-14.313-2.984-3.853-3.24-6.362-2.742-11.25 3.03-4.26 6.02-5.658 10.938-6.738 2.37-.301 4.675-.308 7.062-.262l-.105-3.559c-.302-14.703.588-28.976 7.105-42.441zm22.29 46.855c-4.494 6.172-3.562 14.303-2.797 21.645.803 3.96 2.485 7.018 4.507 10.5 3.437-.52 3.437-.52 7-2 6.57-10.252 5.532-23.36 5-35-5.695-.448-9.219 1.495-13.71 4.855zm-38.477 5.582l-2.168.872L208 110c.491 4.384 1.826 6.302 5 9.313l2.188 2.113c1.538 1.683 1.538 1.683 2.812 1.574 1.036-5.05 1.103-9.874 1-15-3.41-1.136-4.003-.867-7.188.438zM637 45c4.875.875 4.875.875 6 2 .094 1.841.117 3.686.114 5.53v3.579l-.016 3.895-.005 3.964c-.003 3.484-.013 6.967-.024 10.45-.01 3.553-.015 7.106-.02 10.658-.01 6.975-.028 13.95-.049 20.924l1.797-1.922c3.75-3.537 8.321-4.166 13.328-4.516 3.875.438 3.875.438 6.75 2.626 4.217 5.58 4.479 10.346 4.437 17.124l-.003 2.667c-.103 7.102-1.093 13.722-2.653 20.638-.633 3.263-.925 6.072-.656 9.383 1.917 2.25 1.917 2.25 4 4v2c-3.981.202-7.152.23-11-.813-2.922-3.196-2.612-5.775-2.441-10 .465-3.362 1.362-6.283 2.441-9.5 3.071-9.679 2.355-19.64 2-29.687l-4-2-2 3c-2.625.188-2.625.188-5 0l-.688 1.688C648 113 648 113 645.75 115c-7.406 7.15-10.604 19.347-14.125 28.75l-1.363 3.594c-1.093 2.883-2.18 5.768-3.262 8.656l-7-1c-.185-4.9.268-8.687 1.875-13.313l.64-1.864c1.546-4.414 3.234-8.77 4.938-13.124l1.329-3.403c.874-2.226 1.757-4.45 2.651-6.668 4.147-10.508 7.137-20.824 6.817-32.19l-.016-2.323c-.049-3.527-.293-6.721-1.234-10.115l-.196 2.133C634.461 98.778 630.628 116.677 613 135l-1.494 1.604c-8.038 8.628-16.499 17.389-28.873 18.634-5.729.17-9.173-.236-13.633-4.238-1-3-1-3-.304-5.087 2.803-4.111 8.58-4.551 13.195-5.52a404.6 404.6 0 019.171-1.58l3.202-.538c2.577-.431 5.157-.854 7.736-1.275l-1-10-4.75-.313c-7.608-.688-15.48-1.99-22.25-5.687.43-4.809 2.712-7.403 5.937-10.75l1.483-1.576A179.906 179.906 0 01596 95l2.082-1.766C600 92 600 92 603.25 92.313L606 93c-.585 4.007-1.844 6.857-3.938 10.313l-1.59 2.675L599 108h-2v-5h-2c-.235.562-.47 1.124-.71 1.703-1.597 2.843-3.58 4.778-5.915 7.047l-2.477 2.422L584 116l2.379.516c10.793 2.49 16.656 5.762 23.621 14.484 8.52-4.93 12.242-11.907 14.93-21.223.811-3.576 1.479-7.159 2.07-10.777l.41-2.475A1221.34 1221.34 0 00630 80h-2a95.764 95.764 0 012.594-11.914l.933-3.305.973-3.406 1.906-6.727.854-2.994A204.846 204.846 0 00637 45zm-54.625 101.438l-2.14.447c-1.747.365-3.491.74-5.235 1.115v2c6.952.445 11.597.673 17-4-3.184-1.592-6.28-.287-9.625.438zM189.892 38.318c4.432.31 8.866.606 13.3.905 8.603.58 17.206 1.174 25.808 1.777-.78 3.708-1.879 5.224-4.75 7.75l-2.047 1.86c-2.614 1.65-4.168 1.666-7.203 1.39l1-4-63-4-1 11a117.13 117.13 0 01-1.46 6.738l-.914 3.679-1.001 3.895-.516 2.042c-3.438 13.605-7.325 27.08-11.339 40.526-4.811 14.825-4.811 14.825-6.77 30.12h6c.085 3.467-.457 5.428-2.86 7.957-3.547 2.922-6.03 4.884-10.64 5.543-2.5-.5-2.5-.5-3.5-1.5.476-6.379 2.064-12.194 3.914-18.297.6-2.017 1.198-4.035 1.797-6.052l.948-3.168C133.91 98.86 141.135 71.446 146 43l-1.615.48c-5.398 1.177-11.064.926-16.573 1.082l-2.154.068c-9.124.281-18.236.397-27.365.327l-2.723-.017c-4.39-.03-8.779-.077-13.168-.153-12.568-.151-24.19 1.417-36.402 4.4-4.373 1.036-8.52.955-13 .813v-5c15.616-6.27 32.17-6.401 48.751-7.198 3.043-.15 6.084-.323 9.125-.496 33.181-1.879 65.879-1.32 99.016 1.012z"/><path d="M572.133 104.273c3.055 2.042 4.683 3.174 5.867 6.727-4.604-.609-8.565-1.847-12.875-3.563l-3.492-1.378L559 105l2.355 1.746c4.413 3.76 6.198 8.2 7.032 13.899.374 9.024-2.403 17.763-7.965 24.921-4.927 4.968-10.936 6.564-17.735 6.746-5.193-.076-8.821-.729-12.687-4.312-8.164-9.645-7.678-22.035-7-34 .266-2.351.617-4.664 1-7a472.993 472.993 0 0110-4l2.844-1.156c12.384-4.661 23.877-4.384 35.289 2.43zM540 107l-.918 2.45c-3.582 9.137-3.582 9.137-6.957 11.925-2.734 3.377-2.536 5.135-2.5 9.438.591 5.246 1.564 8.356 5.313 12.125 3.57 2.68 5.926 3.507 10.375 3.125A69.68 69.68 0 00550 145l2.129-.246c2.104-.635 2.104-.635 3.285-3.012 5.69-12.61 5.69-12.61 4.399-25.93-3.042-4.719-5.963-6.782-11.375-8.062-2.964-.596-5.362-.75-8.438-.75zM185 95c.125 6.153-.255 11.877-1.277 17.938l-.397 2.442c-.275 1.685-.553 3.369-.835 5.052-.432 2.588-.852 5.177-1.27 7.767l-.81 4.926-.383 2.351c-.912 5.408-.912 5.408-2.028 6.524-2 .04-4 .043-6 0-.888-31.224-.888-31.224 6-45 2.614-1.96 3.702-2 7-2zM686 140h8c2.152 5.514 2.939 10.242 1 15.938L694 158c-4.128-.607-7.332-2.038-11-4 .514-4.97 1.234-9.29 3-14zM181 69a99.984 99.984 0 015 0c1.738 1.738 1.172 4.079 1.188 6.438l.042 2.996C187 81 187 81 185 83h-3v-2l-3-1c.875-7.625.875-7.625 2-11z"/></svg>